<?xml version="1.0" standalone="no"?>
<!DOCTYPE svg PUBLIC "-//W3C//DTD SVG 20010904//EN"
 "http://www.w3.org/TR/2001/REC-SVG-20010904/DTD/svg10.dtd">
<svg version="1.0" xmlns="http://www.w3.org/2000/svg"
 width="300.000000pt" height="300.000000pt" viewBox="0 0 300.000000 300.000000"
 preserveAspectRatio="xMidYMid meet">
<metadata>
Created by potrace 1.11, written by Peter Selinger 2001-2013
</metadata>
<g transform="translate(0.000000,300.000000) scale(0.100000,-0.100000)"
fill="#000000" stroke="none">
<path d="M369 2688 l-367 -181 2 -1115 1 -1115 25 -3 c14 -2 54 -9 90 -14 36
-6 79 -13 95 -16 17 -2 55 -9 85 -14 30 -5 73 -12 95 -15 23 -3 52 -7 65 -10
13 -3 42 -7 65 -10 55 -8 80 -12 159 -26 46 -8 70 -8 75 -1 3 5 6 373 5 816
l-1 807 40 -38 c22 -21 47 -45 56 -53 172 -157 245 -224 324 -297 38 -35 63
-51 76 -48 11 2 51 7 88 10 37 4 79 8 93 10 23 4 151 17 290 31 30 3 66 7 80
9 14 2 57 7 95 10 l70 7 170 175 170 175 0 -721 c0 -637 1 -722 15 -725 8 -3
56 -8 105 -11 89 -6 106 -8 235 -19 36 -4 99 -8 140 -11 41 -3 101 -7 133 -10
l57 -6 0 1114 c0 613 -3 1116 -6 1119 -3 3 -56 -7 -117 -24 -62 -16 -212 -56
-335 -88 -122 -32 -228 -65 -236 -72 -7 -7 -46 -42 -87 -78 -40 -36 -83 -74
-95 -85 -12 -11 -50 -45 -85 -75 -35 -30 -70 -62 -79 -70 -9 -8 -52 -46 -96
-85 -43 -38 -97 -87 -119 -107 l-40 -38 -35 38 c-19 20 -64 71 -100 112 -35
41 -67 77 -70 80 -3 3 -34 39 -70 80 -36 41 -67 77 -70 80 -3 3 -36 41 -75 85
-38 44 -72 82 -75 85 -3 3 -50 57 -105 120 -55 63 -102 117 -105 120 -3 3 -34
39 -70 80 -36 41 -79 91 -97 110 -17 19 -41 47 -53 63 -12 15 -27 27 -33 27
-7 0 -177 -82 -378 -182z"/>
</g>
</svg>
