<?xml version="1.0" standalone="no"?>
<!DOCTYPE svg PUBLIC "-//W3C//DTD SVG 1.1//EN" "http://www.w3.org/Graphics/SVG/1.1/DTD/svg11.dtd">
<svg width="100%" height="100%" viewBox="0 0 1725 1300" version="1.1" xmlns="http://www.w3.org/2000/svg" xmlns:xlink="http://www.w3.org/1999/xlink" xml:space="preserve" style="fill-rule:evenodd;clip-rule:evenodd;stroke-linecap:square;stroke-miterlimit:1.41421;">
    <g id="Shadow">
        <g transform="matrix(1,0,0,1,-1055.02,-399.804)">
            <path d="M1412.51,1698.6L2171.66,1698.6L2618.1,1638.15L2171.66,1613.66L1893.84,1638.15L1059.63,1638.15" style="fill:url(#_Linear1);"/>
        </g>
        <g transform="matrix(1,0,0,1,17.4258,-458.807)">
            <path d="M1417.18,1698.58L1698.03,1698.58L1389.67,1668.35L1102.55,1668.35" style="fill:url(#_Linear2);"/>
        </g>
    </g>
    <g id="Filled Planes" transform="matrix(1,0,0,1,-849.917,-607.69)">
        <g id="Right Plane (Layer) (Layer)">
            <g transform="matrix(1,0,0,1,-1032.43,-528.775)">
                <path d="M2998.33,1396.18L2998.33,2348.38L3312.45,2373.62L3312.45,1314.7L2998.33,1396.18Z" style="fill:url(#_Linear3);"/>
            </g>
            <g transform="matrix(1,0,0,1,-1032.43,-528.775)">
                <path d="M2998.12,1396.45L2998.12,2347.4L3312.94,2372.99L3312.94,1314.4L2998.12,1396.45Z" style="fill:url(#_Linear4);"/>
            </g>
        </g>
        <g id="Right Middle Plane">
            <g transform="matrix(1,0,0,1,-1032.43,-528.775)">
                <path d="M2997.49,1396.01L2477.48,1857.77L2828.76,1818.48L3312.48,1314.52L2997.49,1396.01Z" style="fill:url(#_Linear5);"/>
            </g>
            <g transform="matrix(1,0,0,1,-1032.43,-528.775)">
                <path d="M2998.06,1396.31L2477.82,1857.78L2828.82,1818.33L3312.42,1314.6L2998.06,1396.31Z" style="fill:url(#_Linear6);"/>
            </g>
        </g>
        <g id="Left Middle Plane">
            <g transform="matrix(1,0,0,1,-1032.43,-528.775)">
                <path d="M2238.73,1143L2828.77,1818.78L2477.57,1858.11L1887.38,1315.56L2238.73,1143Z" style="fill:url(#_Linear7);"/>
            </g>
            <g transform="matrix(1,0,0,1,-1032.43,-528.775)">
                <path d="M2238.7,1143.2L2828.32,1819.33L2477.12,1858.3L1887.22,1315.43L2238.7,1143.2Z" style="fill:url(#_Linear8);"/>
            </g>
        </g>
        <g id="Left Plane">
            <g transform="matrix(1,0,0,1,-1032.43,-528.775)">
                <path d="M1885.75,1315.8L1885.75,2374.72L2238.74,2431.91L2238.74,1143.13L1885.75,1315.8Z" style="fill:url(#_Linear9);"/>
            </g>
            <g transform="matrix(1,0,0,1,-1032.43,-528.775)">
                <path d="M1885.37,1316.04L1885.37,2375.21L2238.19,2431.03L2238.19,1142.72L1885.37,1316.04Z" style="fill:url(#_Linear10);"/>
            </g>
        </g>
    </g>
    <g id="Profile Lines" transform="matrix(1,0,0,1,-849.917,-607.69)">
        <g transform="matrix(1,0,0,1,-182.513,78.915)">
            <path d="M2147.43,1040.09L2147.43,1740.01L2457.82,1764.83" style="fill:none;stroke-width:8.33px;stroke:url(#_Linear11);"/>
        </g>
        <g transform="matrix(-0.00303866,0,0,1.11503,2280.21,-0.905757)">
            <rect x="-1506.92" y="704.662" width="2742.43" height="953.819" style="fill:url(#_Linear12);"/>
        </g>
        <g transform="matrix(1,0,0,1,-182.513,78.915)">
            <path d="M2459.05,706.227L2147.83,788.182L1846.32,1056.24" style="fill:none;stroke-width:8.33px;stroke:url(#_Linear13);"/>
        </g>
        <g transform="matrix(1,0,0,1,-182.513,78.915)">
            <path d="M1983.96,1204.79L2462.52,706.83" style="fill:none;stroke-width:8.33px;stroke:url(#_Linear14);"/>
        </g>
        <g transform="matrix(1,0,0,1,-182.513,78.915)">
            <path d="M1390.69,1034.39L1626.06,1250.24L1977.78,1211.7" style="fill:none;stroke-width:8.33px;stroke-linecap:butt;stroke-linejoin:bevel;stroke:url(#_Linear15);"/>
        </g>
        <g transform="matrix(1,0,0,1,-182.513,78.915)">
            <path d="M1981.39,1213.16L1389.25,536.135" style="fill:none;stroke-width:8.33px;stroke-linecap:butt;stroke-linejoin:bevel;stroke:url(#_Linear16);"/>
        </g>
        <g transform="matrix(1,0,0,1,-182.513,78.915)">
            <path d="M1036.85,709.409L1035.01,1767.38L1381.47,1822.99" style="fill:none;stroke-width:8.33px;stroke-linejoin:bevel;stroke:url(#_Linear17);"/>
        </g>
        <g transform="matrix(1,0,0,1,-182.513,78.915)">
            <path d="M1388.66,1823.7L1388.66,532.888L1038.16,706.854" style="fill:none;stroke-width:8.33px;stroke-linejoin:bevel;stroke:url(#_Linear18);"/>
        </g>
    </g>
    <defs>
        <linearGradient id="_Linear1" x1="0" y1="0" x2="1" y2="0" gradientUnits="userSpaceOnUse" gradientTransform="matrix(20.0769,-303.368,303.368,20.0769,1301,1915.41)"><stop offset="0%" style="stop-color:black;stop-opacity:0.301961"/><stop offset="100%" style="stop-color:black;stop-opacity:0"/></linearGradient>
        <linearGradient id="_Linear2" x1="0" y1="0" x2="1" y2="0" gradientUnits="userSpaceOnUse" gradientTransform="matrix(18.5382,-121.789,121.789,18.5382,1293.8,1759.82)"><stop offset="0%" style="stop-color:black;stop-opacity:0.301961"/><stop offset="100%" style="stop-color:black;stop-opacity:0"/></linearGradient>
        <linearGradient id="_Linear3" x1="0" y1="0" x2="1" y2="0" gradientUnits="userSpaceOnUse" gradientTransform="matrix(-288.498,1001.61,-1001.61,-288.498,3291.08,1314.49)"><stop offset="0%" style="stop-color:rgb(0,7,39);stop-opacity:1"/><stop offset="64%" style="stop-color:rgb(56,46,123);stop-opacity:1"/><stop offset="100%" style="stop-color:rgb(68,19,112);stop-opacity:1"/></linearGradient>
        <linearGradient id="_Linear4" x1="0" y1="0" x2="1" y2="0" gradientUnits="userSpaceOnUse" gradientTransform="matrix(219.867,825.764,-825.764,219.867,3044.79,1464.5)"><stop offset="0%" style="stop-color:rgb(13,19,96);stop-opacity:0.803922"/><stop offset="100%" style="stop-color:rgb(197,1,0);stop-opacity:0.4"/></linearGradient>
        <linearGradient id="_Linear5" x1="0" y1="0" x2="1" y2="0" gradientUnits="userSpaceOnUse" gradientTransform="matrix(-141.201,-300.571,300.571,-141.201,3077.96,1635.16)"><stop offset="0%" style="stop-color:rgb(229,19,8);stop-opacity:1"/><stop offset="37%" style="stop-color:rgb(247,191,26);stop-opacity:1"/><stop offset="74%" style="stop-color:rgb(253,249,32);stop-opacity:1"/><stop offset="74%" style="stop-color:rgb(253,249,32);stop-opacity:1"/></linearGradient>
        <linearGradient id="_Linear6" x1="0" y1="0" x2="1" y2="0" gradientUnits="userSpaceOnUse" gradientTransform="matrix(568.715,-447.167,447.167,568.715,2662.24,1784.08)"><stop offset="0%" style="stop-color:rgb(255,15,0);stop-opacity:0.764706"/><stop offset="28%" style="stop-color:rgb(255,161,0);stop-opacity:0.568627"/><stop offset="57%" style="stop-color:rgb(255,210,0);stop-opacity:0.501961"/><stop offset="57%" style="stop-color:rgb(255,210,0);stop-opacity:0.501961"/></linearGradient>
        <linearGradient id="_Linear7" x1="0" y1="0" x2="1" y2="0" gradientUnits="userSpaceOnUse" gradientTransform="matrix(518.054,334.624,-334.624,518.054,2181.53,1471.78)"><stop offset="0%" style="stop-color:rgb(0,7,39);stop-opacity:1"/><stop offset="64%" style="stop-color:rgb(56,46,123);stop-opacity:1"/><stop offset="100%" style="stop-color:rgb(68,19,112);stop-opacity:1"/></linearGradient>
        <linearGradient id="_Linear8" x1="0" y1="0" x2="1" y2="0" gradientUnits="userSpaceOnUse" gradientTransform="matrix(227.416,403.143,-403.143,227.416,2282.96,1428.65)"><stop offset="0%" style="stop-color:rgb(13,19,96);stop-opacity:0.803922"/><stop offset="100%" style="stop-color:rgb(197,1,0);stop-opacity:0.4"/></linearGradient>
        <linearGradient id="_Linear9" x1="0" y1="0" x2="1" y2="0" gradientUnits="userSpaceOnUse" gradientTransform="matrix(226.177,890.071,-890.071,226.177,1966.82,1361.55)"><stop offset="0%" style="stop-color:rgb(255,118,0);stop-opacity:1"/><stop offset="21%" style="stop-color:rgb(255,189,0);stop-opacity:1"/><stop offset="41%" style="stop-color:rgb(255,214,0);stop-opacity:1"/><stop offset="41%" style="stop-color:rgb(255,214,0);stop-opacity:1"/><stop offset="70%" style="stop-color:rgb(254,166,3);stop-opacity:1"/><stop offset="100%" style="stop-color:rgb(251,21,12);stop-opacity:1"/></linearGradient>
        <linearGradient id="_Linear10" x1="0" y1="0" x2="1" y2="0" gradientUnits="userSpaceOnUse" gradientTransform="matrix(-319.385,970.233,-970.233,-319.385,2231.83,1323.9)"><stop offset="0%" style="stop-color:rgb(255,224,0);stop-opacity:0.607843"/><stop offset="23%" style="stop-color:rgb(255,207,0);stop-opacity:0.607843"/><stop offset="44%" style="stop-color:rgb(255,201,0);stop-opacity:0.607843"/><stop offset="44%" style="stop-color:rgb(255,201,0);stop-opacity:0.607843"/><stop offset="72%" style="stop-color:rgb(250,193,8);stop-opacity:0.54902"/><stop offset="100%" style="stop-color:rgb(234,171,30);stop-opacity:0.372549"/></linearGradient>
        <linearGradient id="_Linear11" x1="0" y1="0" x2="1" y2="0" gradientUnits="userSpaceOnUse" gradientTransform="matrix(344.223,724.934,-724.934,344.223,2107.86,1028.39)"><stop offset="0%" style="stop-color:rgb(35,0,98);stop-opacity:1"/><stop offset="45%" style="stop-color:rgb(122,0,43);stop-opacity:1"/><stop offset="100%" style="stop-color:rgb(56,36,51);stop-opacity:1"/></linearGradient>
        <linearGradient id="_Linear12" x1="0" y1="0" x2="1" y2="0" gradientUnits="userSpaceOnUse" gradientTransform="matrix(-2356.39,-278.269,-102110,6.42159,-38412.8,1251.11)"><stop offset="0%" style="stop-color:rgb(73,2,48);stop-opacity:1"/><stop offset="62%" style="stop-color:rgb(17,11,44);stop-opacity:1"/><stop offset="62%" style="stop-color:rgb(17,11,44);stop-opacity:1"/></linearGradient>
        <linearGradient id="_Linear13" x1="0" y1="0" x2="1" y2="0" gradientUnits="userSpaceOnUse" gradientTransform="matrix(679.338,0,0,528.214,1775.46,957.513)"><stop offset="0%" style="stop-color:rgb(255,190,0);stop-opacity:1"/><stop offset="21%" style="stop-color:rgb(252,229,4);stop-opacity:1"/><stop offset="40%" style="stop-color:rgb(251,244,5);stop-opacity:1"/><stop offset="40%" style="stop-color:rgb(251,244,5);stop-opacity:1"/><stop offset="71%" style="stop-color:rgb(246,171,9);stop-opacity:1"/><stop offset="100%" style="stop-color:rgb(244,144,11);stop-opacity:1"/></linearGradient>
        <linearGradient id="_Linear14" x1="0" y1="0" x2="1" y2="0" gradientUnits="userSpaceOnUse" gradientTransform="matrix(517.767,-515.622,515.622,517.767,1925.8,1201.98)"><stop offset="0%" style="stop-color:rgb(181,17,4);stop-opacity:1"/><stop offset="100%" style="stop-color:rgb(221,105,6);stop-opacity:1"/></linearGradient>
        <linearGradient id="_Linear15" x1="0" y1="0" x2="1" y2="0" gradientUnits="userSpaceOnUse" gradientTransform="matrix(504.617,151.203,-151.203,504.617,1398.5,1112.34)"><stop offset="0%" style="stop-color:rgb(98,0,57);stop-opacity:1"/><stop offset="57%" style="stop-color:rgb(62,5,62);stop-opacity:1"/><stop offset="100%" style="stop-color:rgb(46,7,64);stop-opacity:1"/></linearGradient>
        <linearGradient id="_Linear16" x1="0" y1="0" x2="1" y2="0" gradientUnits="userSpaceOnUse" gradientTransform="matrix(490.52,466.139,-466.139,490.52,1461.15,691.659)"><stop offset="0%" style="stop-color:rgb(12,0,56);stop-opacity:1"/><stop offset="100%" style="stop-color:rgb(59,2,63);stop-opacity:1"/></linearGradient>
        <linearGradient id="_Linear17" x1="0" y1="0" x2="1" y2="0" gradientUnits="userSpaceOnUse" gradientTransform="matrix(-381.989,-912.125,912.125,-381.989,1371.91,1778.45)"><stop offset="0%" style="stop-color:rgb(187,52,8);stop-opacity:1"/><stop offset="14%" style="stop-color:rgb(219,73,33);stop-opacity:1"/><stop offset="35%" style="stop-color:rgb(249,171,50);stop-opacity:1"/><stop offset="100%" style="stop-color:rgb(255,246,0);stop-opacity:1"/></linearGradient>
        <linearGradient id="_Linear18" x1="0" y1="0" x2="1" y2="0" gradientUnits="userSpaceOnUse" gradientTransform="matrix(989.042,741.336,-741.336,989.042,982.596,794.791)"><stop offset="0%" style="stop-color:rgb(255,244,0);stop-opacity:1"/><stop offset="23%" style="stop-color:rgb(255,121,0);stop-opacity:1"/><stop offset="62%" style="stop-color:rgb(211,66,24);stop-opacity:1"/><stop offset="100%" style="stop-color:rgb(196,46,33);stop-opacity:1"/></linearGradient>
    </defs>
</svg>
